<svg xmlns="http://www.w3.org/2000/svg" viewBox="0 0 152.82 34.28"><defs><style>.cls-1{fill:#666;}</style></defs><title>beta-digital</title><g id="Camada_2" data-name="Camada 2"><g id="Camada_1-2" data-name="Camada 1"><g id="Camada_1-2-2" data-name="Camada 1-2"><path class="cls-1" d="M22.48,16.77A7.07,7.07,0,0,1,27.11,19a7.77,7.77,0,0,1,2,5.62,8.88,8.88,0,0,1-2.92,7q-2.91,2.61-8.38,2.61H1.29A1.29,1.29,0,0,1,0,33V1.3A1.29,1.29,0,0,1,1.29,0H17.73a10.85,10.85,0,0,1,7.54,2.56,8.66,8.66,0,0,1,2.84,6.79,7.13,7.13,0,0,1-1.79,5.11,6.12,6.12,0,0,1-3.84,2.1Zm-14-3.89a1.29,1.29,0,0,0,1.29,1.29h6.07a4.23,4.23,0,0,0,3-1.05A3.61,3.61,0,0,0,20,10.33a3.27,3.27,0,0,0-1.1-2.55,4,4,0,0,0-2.73-1H9.72A1.29,1.29,0,0,0,8.43,8.05v0ZM16.3,27.45a4.34,4.34,0,0,0,3.09-1,3.6,3.6,0,0,0,1.1-2.81A3.38,3.38,0,0,0,19.37,21a4.26,4.26,0,0,0-2.92-1H9.72a1.29,1.29,0,0,0-1.29,1.29h0v4.93a1.29,1.29,0,0,0,1.29,1.29h0Z"/><path class="cls-1" d="M99.65,8.78v24a1.42,1.42,0,0,1-1.42,1.42H92.68a1.42,1.42,0,0,1-1.42-1.42v-24a1.41,1.41,0,0,0-1.41-1.41H81.59A1.41,1.41,0,0,1,80.18,6h0V1.42A1.41,1.41,0,0,1,81.59,0h27.73a1.41,1.41,0,0,1,1.41,1.41h0V6a1.4,1.4,0,0,1-1.4,1.42h-8.27A1.41,1.41,0,0,0,99.65,8.78Z"/><path class="cls-1" d="M144.22,33.24,142.6,29a1.59,1.59,0,0,0-1.47-1H128.89a1.6,1.6,0,0,0-1.48,1l-1.62,4.21a1.57,1.57,0,0,1-1.48,1h-5.58a1.57,1.57,0,0,1-1.58-1.57,1.67,1.67,0,0,1,.12-.62l13-31a1.56,1.56,0,0,1,1.46-1h6.53a1.59,1.59,0,0,1,1.45,1l13,31.08a1.58,1.58,0,0,1-1.46,2.19H145.7A1.57,1.57,0,0,1,144.22,33.24ZM133.54,13.31l-2,5.3a1.59,1.59,0,0,0,.93,2.05,1.39,1.39,0,0,0,.53.1h4.12a1.58,1.58,0,0,0,1.58-1.58,1.7,1.7,0,0,0-.11-.58l-2.07-5.3a1.58,1.58,0,0,0-3,0Z"/><path class="cls-1" d="M45.63,0H65.05a3.64,3.64,0,0,1,3.63,3.63h0a3.63,3.63,0,0,1-3.63,3.63H45.63A3.63,3.63,0,0,1,42,3.64h0A3.64,3.64,0,0,1,45.63,0Z"/><path class="cls-1" d="M45.63,13.5H65.05a3.64,3.64,0,0,1,3.63,3.63h0a3.63,3.63,0,0,1-3.63,3.63H45.63A3.63,3.63,0,0,1,42,17.13h0A3.64,3.64,0,0,1,45.63,13.5Z"/><path class="cls-1" d="M45.63,27H65.05a3.64,3.64,0,0,1,3.63,3.63h0a3.63,3.63,0,0,1-3.63,3.63H45.63A3.63,3.63,0,0,1,42,30.62h0A3.64,3.64,0,0,1,45.63,27Z"/></g></g></g></svg>