<svg xmlns="http://www.w3.org/2000/svg" width="41.639" height="41.639" viewBox="0 0 41.639 41.639"><path d="M20.819 0a20.819 20.819 0 1 0 20.82 20.819A20.822 20.822 0 0 0 20.819 0Zm.441 32.941h-.005a12.456 12.456 0 0 1-5.955-1.516l-6.6 1.732 1.763-6.457a12.461 12.461 0 1 1 10.8 6.239Zm0 0" /><path d="M21.265 10.123a10.358 10.358 0 0 0-8.778 15.863l.246.392-1.046 3.821 3.92-1.028.378.224a10.34 10.34 0 0 0 5.271 1.443 10.3575 10.3575 0 0 0 0-20.715Zm6.092 14.8a3.208 3.208 0 0 1-2.1 1.48 4.273 4.273 0 0 1-1.961-.123 18 18 0 0 1-1.775-.656 13.878 13.878 0 0 1-5.319-4.7 6.054 6.054 0 0 1-1.271-3.22 3.49 3.49 0 0 1 1.09-2.6 1.145 1.145 0 0 1 .83-.389c.207 0 .415 0 .6.011s.448-.073.7.534c.26.623.882 2.155.96 2.311a.574.574 0 0 1 .026.545 8.862 8.862 0 0 1-.778 1.065c-.138.171-.318.324-.137.635a9.386 9.386 0 0 0 1.732 2.156 8.511 8.511 0 0 0 2.5 1.545c.311.156.493.13.674-.078s.778-.909.986-1.221.415-.26.7-.156 1.816.857 2.128 1.012.519.234.6.364a2.6 2.6 0 0 1-.185 1.489Zm0 0" /></svg>