<svg xmlns="http://www.w3.org/2000/svg" width="41.639" height="41.639" viewBox="0 0 41.639 41.639"><path d="M24.176 41.368q-.26.042-.521.078.261-.036.521-.078ZM24.593 41.297l-.248.043ZM23.188 41.504q-.3.034-.611.06.307-.026.611-.06ZM23.588 41.455l-.293.036ZM25.159 41.185l-.219.046ZM26.566 40.836l-.177.049ZM26.14 40.952l-.193.05ZM25.584 41.091l-.2.046ZM22.57 41.565q-.164.014-.329.025.165-.015.329-.025ZM41.639 20.819a20.819 20.819 0 1 0-20.82 20.82h.366V25.427h-4.473v-5.213h4.473v-3.836c0-4.449 2.716-6.87 6.684-6.87a36.82 36.82 0 0 1 4.01.2v4.65h-2.736c-2.159 0-2.577 1.026-2.577 2.532v3.32h5.162l-.673 5.213h-4.489v15.412a20.831 20.831 0 0 0 15.073-20.016ZM22.194 41.593q-.325.021-.651.032.326-.011.651-.032Zm0 0" /><path d="M21.531 41.626q-.172.006-.345.009.173-.003.345-.009Zm0 0" /></svg>