<svg xmlns="http://www.w3.org/2000/svg" xmlns:xlink="http://www.w3.org/1999/xlink" width="29.947" height="30" viewBox="0 0 29.947 30"><defs><clipPath id="a"><rect width="29.947" height="30" fill="#467ebe"/></clipPath></defs><g transform="translate(0 0)" clip-path="url(#a)"><path d="M29.788,2.8A4.033,4.033,0,0,0,25.926,0H4.074A4.042,4.042,0,0,0,0,4.074V25.926a4.045,4.045,0,0,0,3.386,4.021c.053,0,.106.053.159.053H26.4c.212-.053.476-.106.688-.159a4.011,4.011,0,0,0,2.8-3.175c0-.053.053-.106.053-.212V3.6q-.079-.476-.159-.794M16.614,24.021a9.572,9.572,0,0,1-5.556-.688.747.747,0,0,0-.476-.053c-1.429.317-2.91.688-4.339,1.005-.423.106-.582-.106-.529-.476.317-1.429.582-2.91.9-4.339a1.1,1.1,0,0,0-.053-.582,9.287,9.287,0,1,1,17.513-5.714c.106.582.159,1.164.212,1.746a9.306,9.306,0,0,1-7.672,9.1" transform="translate(0 0)" fill="#467ebe"/><path d="M20.489,14.489A7.263,7.263,0,0,0,15.3,24.912a1.7,1.7,0,0,1,.159,1.429c-.053.159-.053.265-.106.423-.106.582-.212,1.164-.37,1.746.847-.212,1.587-.37,2.381-.582a1.318,1.318,0,0,1,1.005.106,7.078,7.078,0,0,0,4.868.688,7.248,7.248,0,0,0-2.751-14.233M26.679,24.7a2.743,2.743,0,0,1-1.693,1.376c-.212.053-.476.053-.635.106a5.9,5.9,0,0,1-2.91-.9,11.618,11.618,0,0,1-3.7-3.651,3.72,3.72,0,0,1-.582-2.593,2.69,2.69,0,0,1,1.27-1.746.634.634,0,0,1,.9.265c.265.582.582,1.217.794,1.8a.815.815,0,0,1-.106.582.949.949,0,0,1-.265.37c-.317.423-.37.688,0,1.111a10.1,10.1,0,0,0,2.646,2.328c.529.317.741.265,1.164-.159.106-.106.212-.265.317-.317a1.409,1.409,0,0,1,.635-.159c.582.106,1.164.317,1.746.476a.729.729,0,0,1,.423,1.111" transform="translate(-6.838 -6.764)" fill="#467ebe"/></g></svg>