<?xml version="1.0" encoding="UTF-8"?><svg id="Layer_2" xmlns="http://www.w3.org/2000/svg" viewBox="0 0 91.38 91.38"><g id="Layer_1-2"><path d="M42.47,0c2.14,0,4.28,0,6.42,0,1.47,.2,2.94,.35,4.39,.61,10.19,1.8,18.92,6.39,25.89,14.05,10.26,11.29,14.06,24.59,11.37,39.57-2.03,11.29-7.81,20.52-16.88,27.54-10.12,7.84-21.65,10.84-34.32,9.16-8.94-1.18-16.84-4.83-23.63-10.78-8.05-7.06-13.09-15.86-15-26.42C.42,52.13,.23,50.51,0,48.89c0-2.14,0-4.28,0-6.42,.13-1.03,.25-2.05,.4-3.08C1.7,30.51,5.21,22.61,11.11,15.83,18.21,7.69,27.08,2.6,37.73,.7,39.3,.42,40.89,.23,42.47,0Zm7.18,69.02c0-.42,0-.77,0-1.12,0-5.8,0-11.6,0-17.39,0-1.78,.36-3.42,1.55-4.8,1.61-1.85,3.64-2.49,6.02-1.97,2.17,.48,3.29,2.02,3.79,4.05,.21,.86,.35,1.76,.36,2.64,.04,5.86,.02,11.72,.03,17.57,0,.34,0,.68,0,1.01h11.09v-1.09c0-5.29,.02-10.59,0-15.88,0-1.87,.01-3.76-.22-5.6-.72-5.72-3.9-10.97-11.32-11.57-4.35-.35-8.03,.96-10.65,4.64-.14,.2-.31,.38-.63,.77v-4.59h-11.03v33.34h11.04Zm-28.31,0h10.97V35.67h-10.97v33.35Zm-.67-43.74c.01,3.35,2.58,5.74,6.16,5.74,3.65,0,6.29-2.4,6.29-5.73,0-3.38-2.59-5.83-6.19-5.83-3.69,0-6.27,2.4-6.26,5.83Z"/></g></svg>