<svg xmlns="http://www.w3.org/2000/svg" xmlns:xlink="http://www.w3.org/1999/xlink" width="30" height="30" viewBox="0 0 30 30"><defs><clipPath id="a"><rect width="30" height="30" transform="translate(0 0)" fill="#467ebe"/></clipPath></defs><g transform="translate(0 0)" clip-path="url(#a)"><path d="M0,26.508V3.545c0-.053.053-.053.053-.106A4.1,4.1,0,0,1,4.18,0H25.926A4.042,4.042,0,0,1,30,4.074V25.926a4.1,4.1,0,0,1-2.751,3.862,4.408,4.408,0,0,1-.794.212H3.6c-.053,0-.106-.053-.159-.053a4.044,4.044,0,0,1-3.28-2.91A2.016,2.016,0,0,1,0,26.508M22.857,9.471h0a.232.232,0,0,1,.053-.159c.265-.476.582-.9.847-1.376.053-.106,0-.265,0-.37a.9.9,0,0,0-.37.053c-.529.212-1.058.423-1.64.688a.732.732,0,0,1-.847-.159,4.035,4.035,0,0,0-6.032,1.111,3.95,3.95,0,0,0-.476,2.328c0,.317-.053.37-.37.317-.265-.053-.529-.053-.794-.106A10.539,10.539,0,0,1,6.984,8.148c-.212-.265-.317-.265-.476.053a4.107,4.107,0,0,0-.37,2.857,4.023,4.023,0,0,0,1.058,1.9H7.037c-.212-.053-.37-.159-.582-.212-.37-.159-.476-.106-.476.317A4.125,4.125,0,0,0,7.2,15.82c.317.265.635.529,1.005.794H7.725c-.37-.053-.476.053-.317.37a3.967,3.967,0,0,0,2.7,2.487c.106.053.265.053.423.106a7.041,7.041,0,0,1-3.016,1.164c-.529.053-1.058.053-1.587.106-.106,0-.317.106-.317.212a.672.672,0,0,0,.212.37c0,.053.053.053.106.053A10.962,10.962,0,0,0,13.439,22.7a10.014,10.014,0,0,0,5.5-2.8,10.971,10.971,0,0,0,3.439-7.937,1.3,1.3,0,0,1,.476-1.005A16.912,16.912,0,0,0,24.18,9.524c.053-.106.053-.265.106-.37a1.139,1.139,0,0,0-.423,0c-.317.053-.635.212-1.005.317" transform="translate(0 0)" fill="#467ebe"/></g></svg>