<?xml version="1.0" encoding="UTF-8"?><svg id="Layer_2" xmlns="http://www.w3.org/2000/svg" viewBox="0 0 94.71 94.66"><g id="Layer_1-2"><g><path d="M0,50.67v-6.65c.08-.58,.16-1.15,.23-1.73,.88-7.58,3.26-14.63,7.57-20.95C16.68,8.31,29.05,1.13,44.8,.1c9.34-.61,18.11,1.61,26.26,6.28,16.91,9.68,26.32,29.56,22.99,48.73-1.85,10.66-6.73,19.72-14.69,27.06-6.74,6.22-14.66,10.16-23.7,11.76-1.66,.29-3.33,.49-5,.73h-6.66c-1.06-.14-2.12-.26-3.18-.42-9.3-1.37-17.56-5.05-24.62-11.28C7.91,75.66,2.71,66.57,.74,55.67,.44,54.02,.24,52.34,0,50.67ZM45.88,26.47c-5.83,.32-12.9,.64-19.96,1.12-3.86,.26-6.44,2.56-7.07,6.38-.55,3.36-.81,6.78-.99,10.18-.29,5.36-.01,10.71,.82,16.01,.58,3.69,2.67,6,6.05,6.72,1.02,.22,2.06,.37,3.1,.43,4.43,.24,8.85,.51,13.28,.62,9.21,.24,18.41,.13,27.59-.8,3.94-.4,6.47-2.53,7.11-6.44,.55-3.36,.79-6.78,.98-10.18,.28-5.3,.05-10.58-.79-15.83-.67-4.14-2.73-6.26-6.83-7-1.3-.23-2.62-.41-3.94-.47-6.03-.26-12.06-.47-19.35-.75Z"/><path d="M56.87,47.35c-5.2,3-10.23,5.89-15.37,8.85v-17.7c5.12,2.95,10.17,5.85,15.37,8.85Z"/></g></g></svg>