<svg xmlns="http://www.w3.org/2000/svg" xmlns:xlink="http://www.w3.org/1999/xlink" width="30" height="30" viewBox="0 0 30 30"><defs><clipPath id="a"><rect width="30" height="30" fill="none"/></clipPath></defs><g transform="translate(0 0)" clip-path="url(#a)"><path d="M26.55,0H3.45A3.45,3.45,0,0,0,0,3.45v23.1A3.45,3.45,0,0,0,3.45,30h9.309V19.476H9.536V15.72h3.223V12.956c0-3.205,1.957-4.95,4.816-4.95a26.688,26.688,0,0,1,2.889.144V11.5H18.493c-1.556,0-1.857.739-1.857,1.824v2.392h3.719l-.485,3.756H16.636v10.52c-.04,0-.081.006-.121.006H26.55A3.45,3.45,0,0,0,30,26.55V3.45A3.45,3.45,0,0,0,26.55,0" transform="translate(0 0)" fill="#467ebe"/></g></svg>