<svg xmlns="http://www.w3.org/2000/svg" width="41.639" height="41.639" viewBox="0 0 41.639 41.639"><path d="M214.957,210.979A3.979,3.979,0,1,1,210.979,207,3.979,3.979,0,0,1,214.957,210.979Zm0,0" transform="translate(-190.159 -190.159)" fill="#fff"/><path d="M154.574,138.234a3.952,3.952,0,0,0-2.265-2.265,6.6,6.6,0,0,0-2.216-.411c-1.259-.057-1.636-.07-4.823-.07s-3.565.012-4.823.069a6.608,6.608,0,0,0-2.216.411,3.954,3.954,0,0,0-2.266,2.265,6.606,6.606,0,0,0-.411,2.216c-.057,1.259-.07,1.636-.07,4.823s.012,3.564.07,4.823a6.6,6.6,0,0,0,.411,2.216,3.953,3.953,0,0,0,2.265,2.265,6.6,6.6,0,0,0,2.216.411c1.259.057,1.636.069,4.823.069s3.565-.012,4.823-.069a6.6,6.6,0,0,0,2.216-.411,3.953,3.953,0,0,0,2.265-2.265,6.61,6.61,0,0,0,.411-2.216c.057-1.259.069-1.636.069-4.823s-.012-3.565-.069-4.823A6.6,6.6,0,0,0,154.574,138.234Zm-9.3,13.168a6.129,6.129,0,1,1,6.129-6.129A6.129,6.129,0,0,1,145.27,151.4Zm6.371-11.068a1.432,1.432,0,1,1,1.432-1.432A1.432,1.432,0,0,1,151.641,140.334Zm0,0" transform="translate(-124.45 -124.454)" fill="#fff"/><path d="M20.819,0A20.819,20.819,0,1,0,41.639,20.819,20.822,20.822,0,0,0,20.819,0ZM32.7,25.748a8.771,8.771,0,0,1-.556,2.9,6.113,6.113,0,0,1-3.5,3.5,8.777,8.777,0,0,1-2.9.556c-1.275.058-1.682.072-4.929.072s-3.654-.014-4.929-.072a8.777,8.777,0,0,1-2.9-.556,6.113,6.113,0,0,1-3.5-3.5,8.769,8.769,0,0,1-.556-2.9c-.059-1.275-.072-1.682-.072-4.929s.014-3.654.072-4.929a8.772,8.772,0,0,1,.555-2.9,6.117,6.117,0,0,1,3.5-3.5,8.779,8.779,0,0,1,2.9-.556c1.275-.058,1.682-.072,4.929-.072s3.654.014,4.929.072a8.781,8.781,0,0,1,2.9.555,6.115,6.115,0,0,1,3.5,3.5,8.77,8.77,0,0,1,.556,2.9c.058,1.275.072,1.682.072,4.929S32.761,24.473,32.7,25.748Zm0,0" fill="#fff"/></svg>