<svg xmlns="http://www.w3.org/2000/svg" xmlns:xlink="http://www.w3.org/1999/xlink" width="243.868" height="44.703" viewBox="0 0 243.868 44.703"><defs><clipPath id="a"><rect width="243.868" height="44.703"/></clipPath></defs><g transform="translate(0 0)"><g transform="translate(0 0)" clip-path="url(#a)"><path d="M45.9,41.914V27.835q0-5.014,2.551-7.127T56.323,18.6h4.619v5.059H58.214q-2.947,0-4.2,1.518a7.274,7.274,0,0,0-1.253,4.686V41.914Z" transform="translate(-13.08 -5.3)" fill="#fff"/><path d="M72.22,20.758q2.947-2.529,9.987-2.53t9.986,2.53q2.948,2.53,2.947,9.392,0,6.908-2.947,9.415t-9.986,2.507q-7.04,0-9.987-2.507T69.272,30.15q0-6.862,2.948-9.392m5.367,4.158q-1.276,1.627-1.276,5.234t1.276,5.235q1.275,1.629,4.62,1.628t4.619-1.628Q88.1,33.758,88.1,30.15t-1.276-5.234q-1.275-1.629-4.619-1.628t-4.62,1.628" transform="translate(-19.743 -5.195)" fill="#fff"/><path d="M7.751,38.933H0L.01,31.55c.022-.664.039-2.427.131-3,.689-4.246,2.935-5.261,6.946-5.577.853-.066,2.2-.053,3.173-.059h7.134a4.567,4.567,0,0,0,3.365-.99,4.809,4.809,0,0,0,.945-3.366,4.644,4.644,0,0,0-.945-3.3,4.637,4.637,0,0,0-3.365-.967H1.579V8.137H21.03a10.525,10.525,0,0,1,4.179.725,5.383,5.383,0,0,1,2.553,2.2,10.137,10.137,0,0,1,1.231,3.256,22.171,22.171,0,0,1,.352,4.246q0,5.147-1.781,7.831T21.03,29.078H11.837c-2.5.123-3.939,1.385-4.085,3.715Z" transform="translate(0 -2.319)" fill="#fff"/><path d="M111.538,38.932V8.137h7.918v23.44l-6.972,7.356Z" transform="translate(-31.789 -2.319)" fill="#fff"/><path d="M158.3,37.825V18.6h6.863V44.56Z" transform="translate(-45.115 -5.3)" fill="#fff"/><path d="M188.482,38.933h-4.795q-8.668,0-8.668-7.743V20.674h-3.255V15.616h3.255V8.137h6.864v7.479h6.6v5.059h-6.6v8.007a5.314,5.314,0,0,0,1.276,3.937,5.6,5.6,0,0,0,4.048,1.254h1.275Z" transform="translate(-48.953 -2.319)" fill="#fff"/><path d="M219.52,41.914H207.9q-5.587,0-7.7-2.948t-2.111-8.712q0-5.761,2.111-8.71t7.7-2.947h11.131v5.059h-8.49q-3.125,0-4.268,1.649a8.72,8.72,0,0,0-1.145,4.949,8.719,8.719,0,0,0,1.145,4.951q1.142,1.649,4.268,1.649h8.975Z" transform="translate(-56.457 -5.3)" fill="#fff"/><path d="M232.792,38.933V8.137h6.863v7.479h6.819a10.479,10.479,0,0,1,6.864,2.068q2.506,2.067,2.507,6.335V38.933h-6.863V25.779a5.62,5.62,0,0,0-1.122-3.895,4.884,4.884,0,0,0-3.718-1.21h-4.487V38.933Z" transform="translate(-66.346 -2.319)" fill="#fff"/><path d="M293.285,41.808H279.207q-5.412,0-7.149-2.507t-1.737-9.238a27.351,27.351,0,0,1,.528-6.027,6.883,6.883,0,0,1,1.98-3.586,7.346,7.346,0,0,1,3.586-1.781,29.971,29.971,0,0,1,5.784-.44,32.417,32.417,0,0,1,5.147.33,10.54,10.54,0,0,1,3.631,1.3,5.475,5.475,0,0,1,2.375,2.861,13.814,13.814,0,0,1,.726,4.883q0,4.839-3.651,4.839H277.27a4.855,4.855,0,0,0,.99,3.365q.99,1.078,3.674,1.078h11.351ZM277.27,27.686h8.535q1.277,0,1.276-1.408a2.493,2.493,0,0,0-1.474-2.376,7.44,7.44,0,0,0-3.411-.747,5.7,5.7,0,0,0-3.739,1.012,4.427,4.427,0,0,0-1.188,3.519" transform="translate(-77.042 -5.195)" fill="#fff"/><path d="M308.832,41.914V23q0-4.4,4.4-4.4h9.5a10.109,10.109,0,0,1,6.73,2.046q2.421,2.045,2.421,6.357V41.914h-6.863V28.76a5.62,5.62,0,0,0-1.122-3.895,4.883,4.883,0,0,0-3.717-1.21h-2.948a1.648,1.648,0,0,0-1.188.352A1.646,1.646,0,0,0,315.7,25.2V41.914Z" transform="translate(-88.018 -5.3)" fill="#fff"/><path d="M155.1,47.022h-9.723L126.2,27.1a5.5,5.5,0,0,1-1.5-3.959,5.144,5.144,0,0,1,1.232-3.433l9.988-11.569h9.5l-12.01,12.669a3.333,3.333,0,0,0-1.188,2.245,4.209,4.209,0,0,0,1.539,2.639Z" transform="translate(-35.541 -2.319)" fill="#fff"/><path d="M165.949,0V9.485h-9.485Z" transform="translate(-44.592 0)" fill="#256cb2"/></g></g></svg>